HIERARCHY
ROOT root
{
  OFFSET 0 90.5966 0
  CHANNELS 6 Xposition Yposition Zposition Zrotation Xrotation Yrotation
  JOINT torso_1
  {
    OFFSET 0 4.93189 -1.1181
    CHANNELS 6 Xposition Yposition Zposition Zrotation Xrotation Yrotation
    JOINT torso_2
    {
      OFFSET 0 5.45428 1.04046
      CHANNELS 6 Xposition Yposition Zposition Zrotation Xrotation Yrotation
      JOINT torso_3
      {
        OFFSET -9.96389e-18 5.81666 0.111686
        CHANNELS 6 Xposition Yposition Zposition Zrotation Xrotation Yrotation
        JOINT torso_4
        {
          OFFSET -1.07264e-17 6.3178 -0.430704
          CHANNELS 6 Xposition Yposition Zposition Zrotation Xrotation Yrotation
          JOINT torso_5
          {
            OFFSET -1.91593e-17 7.38567 -1.4624
            CHANNELS 6 Xposition Yposition Zposition Zrotation Xrotation Yrotation
            JOINT torso_6
            {
              OFFSET -2.45986e-17 9.22288 -0.888062
              CHANNELS 6 Xposition Yposition Zposition Zrotation Xrotation Yrotation
              JOINT torso_7
              {
                OFFSET -2.82008e-17 10.2464 1.53133
                CHANNELS 6 Xposition Yposition Zposition Zrotation Xrotation Yrotation
                JOINT neck_1
                {
                  OFFSET -1.25459e-17 4.64811 0.694664
                  CHANNELS 6 Xposition Yposition Zposition Zrotation Xrotation Yrotation
                  JOINT neck_2
                  {
                    OFFSET -1.75924e-17 4.68175 0.4096
                    CHANNELS 6 Xposition Yposition Zposition Zrotation Xrotation Yrotation
                    JOINT head
                    {
                      OFFSET -1.9515e-17 4.6908 0.74295
                      CHANNELS 6 Xposition Yposition Zposition Zrotation Xrotation Yrotation
                      End Site
                      {
                        OFFSET 0 0.1 0
                      }
                    }
                  }
                }
                JOINT l_shoulder
                {
                  OFFSET 1.19736 -7.38744 7.31601
                  CHANNELS 6 Xposition Yposition Zposition Zrotation Xrotation Yrotation
                  JOINT l_up_arm
                  {
                    OFFSET 12.5803 3.15559 -3.17425
                    CHANNELS 6 Xposition Yposition Zposition Zrotation Xrotation Yrotation
                    JOINT l_low_arm
                    {
                      OFFSET 28.3639 0.0580795 0.133078
                      CHANNELS 6 Xposition Yposition Zposition Zrotation Xrotation Yrotation
                      JOINT l_hand
                      {
                        OFFSET 23.5335 0.0481878 0.110415
                        CHANNELS 6 Xposition Yposition Zposition Zrotation Xrotation Yrotation
                        End Site
                        {
                          OFFSET 0.1 0 0
                        }
                      }
                    }
                  }
                }
                JOINT r_shoulder
                {
                  OFFSET -1.19736 -7.38743 7.31591
                  CHANNELS 6 Xposition Yposition Zposition Zrotation Xrotation Yrotation
                  JOINT r_up_arm
                  {
                    OFFSET -12.5803 3.15559 -3.17425
                    CHANNELS 6 Xposition Yposition Zposition Zrotation Xrotation Yrotation
                    JOINT r_low_arm
                    {
                      OFFSET -28.3639 0.0580795 0.133078
                      CHANNELS 6 Xposition Yposition Zposition Zrotation Xrotation Yrotation
                      JOINT r_hand
                      {
                        OFFSET -23.5335 0.0481876 0.110415
                        CHANNELS 6 Xposition Yposition Zposition Zrotation Xrotation Yrotation
                        End Site
                        {
                          OFFSET -0.1 0 0
                        }
                      }
                    }
                  }
                }
              }
            }
          }
        }
      }
    }
  }
  JOINT l_up_leg
  {
    OFFSET 8.96978 -4.08401 1.97395
    CHANNELS 6 Xposition Yposition Zposition Zrotation Xrotation Yrotation
    JOINT l_low_leg
    {
      OFFSET -0.827718 -37.6515 -0.63625
      CHANNELS 6 Xposition Yposition Zposition Zrotation Xrotation Yrotation
      JOINT l_foot
      {
        OFFSET -2.25899 -39.2341 -5.87393
        CHANNELS 6 Xposition Yposition Zposition Zrotation Xrotation Yrotation
        JOINT l_toes
        {
          OFFSET 0.756579 -9.59872 12.1348
          CHANNELS 6 Xposition Yposition Zposition Zrotation Xrotation Yrotation
          End Site
          {
            OFFSET 0 0 0.1
          }
        }
      }
    }
  }
  JOINT r_up_leg
  {
    OFFSET -8.96978 -4.08401 1.97395
    CHANNELS 6 Xposition Yposition Zposition Zrotation Xrotation Yrotation
    JOINT r_low_leg
    {
      OFFSET 0.827718 -37.6515 -0.63625
      CHANNELS 6 Xposition Yposition Zposition Zrotation Xrotation Yrotation
      JOINT r_foot
      {
        OFFSET 2.25899 -39.2341 -5.87393
        CHANNELS 6 Xposition Yposition Zposition Zrotation Xrotation Yrotation
        JOINT r_toes
        {
          OFFSET -0.756579 -9.59872 12.1348
          CHANNELS 6 Xposition Yposition Zposition Zrotation Xrotation Yrotation
          End Site
          {
            OFFSET 0 0 0.1
          }
        }
      }
    }
  }
}
MOTION
Frames:4
Frame Time:0.020000
47.1874 86.9693 64.474 -1.21718 13.6023 29.2978 0 4.93189 -1.1181 -1.51438 10.3358 -0.235976 0 5.45428 1.04046 -1.19575 8.34987 -0.281121 -9.96389e-18 5.81666 0.111686 -0.788689 6.74405 -0.230589 -1.07264e-17 6.3178 -0.430704 -0.34355 4.17087 -0.214429 -1.91593e-17 7.38567 -1.4624 0.067923 1.58151 -0.132712 -2.45986e-17 9.22288 -0.888062 0.454601 0.353347 -0.156801 -2.82008e-17 10.2464 1.53133 0.0104713 0.115488 -0.0128792 -1.25459e-17 4.64811 0.694664 1.12712 3.32235 -2.64581 -1.75924e-17 4.68175 0.4096 5.63393 -14.1693 -1.14826 -1.9515e-17 4.6908 0.74295 7.79025 -15.8026 -3.85484 1.19736 -7.38744 7.31601 11.5385 -0.772859 -3.4234 12.5803 3.15559 -3.17425 -70.0731 11.3324 -41.3096 28.3639 0.0580795 0.133078 11.8501 -14.0217 -100.27 23.5335 0.0481878 0.110415 -4.7867 -73.9536 -5.27091 -1.19736 -7.38743 7.31591 -18.0583 -2.12313 0.629405 -12.5803 3.15559 -3.17425 70.2804 21.804 51.3113 -28.3639 0.0580795 0.133078 -11.9406 -13.4367 97.3964 -23.5335 0.0481876 0.110415 -0.948422 -57.335 4.70675 8.96978 -4.08401 1.97395 12.3318 -29.9786 2.28928 -0.827718 -37.6515 -0.63625 -3.41103 12.6118 0.155934 -2.25899 -39.2341 -5.87393 -10.783 5.37268 16.9395 0.756579 -9.59872 12.1348 6.26917e-16 -7.68592e-16 -7.65561e-18 -8.96978 -4.08401 1.97395 -18.0885 -24.6403 6.07527 0.827718 -37.6515 -0.63625 6.89808 24.4685 -1.06268 2.25899 -39.2341 -5.87393 2.21477 -15.6371 -16.708 -0.756579 -9.59872 12.1348 -6.12686e-16 -5.64528e-16 -1.27401e-14 
47.395 86.9663 64.5799 -0.841919 13.2963 28.5424 0 4.93189 -1.1181 -1.52534 10.1689 -0.297339 0 5.45428 1.04046 -1.18719 8.22692 -0.350355 -9.96389e-18 5.81666 0.111686 -0.769776 6.65232 -0.301671 -1.07264e-17 6.3178 -0.430704 -0.312555 4.13286 -0.289886 -1.91593e-17 7.38567 -1.4624 0.0936458 1.58397 -0.21412 -2.45986e-17 9.22288 -0.888062 0.46281 0.384294 -0.237554 -2.82008e-17 10.2464 1.53133 0.0101474 0.115488 -0.0135482 -1.25459e-17 4.64811 0.694664 1.16887 3.61647 -2.73338 -1.75924e-17 4.68175 0.4096 5.67247 -13.817 -1.18322 -1.9515e-17 4.6908 0.74295 7.757 -15.4258 -3.85796 1.19736 -7.38744 7.31601 11.4353 -0.681309 -3.30462 12.5803 3.15559 -3.17425 -69.7083 11.8244 -40.7199 28.3639 0.0580795 0.133078 11.8369 -14.0932 -100.623 23.5335 0.0481878 0.110415 -4.50834 -73.8349 -4.98014 -1.19736 -7.38743 7.31591 -18.0391 -2.0934 0.498334 -12.5803 3.15559 -3.17425 70.705 21.9621 50.5944 -28.3639 0.0580795 0.133078 -11.9351 -13.4796 97.6062 -23.5335 0.0481876 0.110415 -0.786613 -57.724 4.82967 8.96978 -4.08401 1.97395 12.3319 -29.5362 1.99999 -0.827718 -37.6515 -0.63625 -3.59173 13.2613 0.185044 -2.25899 -39.2341 -5.87393 -10.6726 4.87736 16.9817 0.756579 -9.59872 12.1348 -8.76098e-16 -8.38025e-16 5.53103e-17 -8.96978 -4.08401 1.97395 -17.906 -24.2561 7.04632 0.827718 -37.6515 -0.63625 6.85118 24.3201 -1.04592 2.25899 -39.2341 -5.87393 2.35791 -15.7471 -16.7204 -0.756579 -9.59872 12.1348 -1.98785e-16 -5.8393e-16 -1.27595e-14 
47.705 86.9658 64.7125 -0.536635 12.9115 27.7938 0 4.93189 -1.1181 -1.52938 9.94587 -0.35965 0 5.45428 1.04046 -1.17053 8.06579 -0.419714 -9.96389e-18 5.81666 0.111686 -0.743657 6.53878 -0.373726 -1.07264e-17 6.3178 -0.430704 -0.275182 4.10107 -0.366653 -1.91593e-17 7.38567 -1.4624 0.123282 1.61195 -0.297903 -2.45986e-17 9.22288 -0.888062 0.472327 0.450164 -0.321831 -2.82008e-17 10.2464 1.53133 0.00989604 0.114888 -0.0142733 -1.25459e-17 4.64811 0.694664 1.21252 3.91759 -2.83572 -1.75924e-17 4.68175 0.4096 5.70188 -13.4323 -1.22512 -1.9515e-17 4.6908 0.74295 7.71922 -15.017 -3.8617 1.19736 -7.38744 7.31601 11.2918 -0.604472 -3.18601 12.5803 3.15559 -3.17425 -69.2865 12.3757 -40.231 28.3639 0.0580795 0.133078 11.8302 -14.1285 -100.798 23.5335 0.0481878 0.110415 -4.20974 -73.6687 -4.65027 -1.19736 -7.38743 7.31591 -17.9883 -2.08655 0.380362 -12.5803 3.15559 -3.17425 71.157 22.0611 49.8793 -28.3639 0.0580795 0.133078 -11.9312 -13.5082 97.7465 -23.5335 0.0481876 0.110415 -0.692154 -58.1664 4.82329 8.96978 -4.08401 1.97395 12.3357 -29.0652 1.47656 -0.827718 -37.6515 -0.63625 -3.79972 14.005 0.221074 -2.25899 -39.2341 -5.87393 -10.5097 4.19378 17.0079 0.756579 -9.59872 12.1348 1.86326e-15 -7.19573e-16 -6.31412e-17 -8.96978 -4.08401 1.97395 -17.6815 -23.7599 8.00538 0.827718 -37.6515 -0.63625 6.78515 24.1106 -1.02251 2.25899 -39.2341 -5.87393 2.54981 -15.793 -16.7323 -0.756579 -9.59872 12.1348 -1.98785e-16 -5.8393e-16 -1.27595e-14 
48.1203 86.9701 64.8617 -0.245721 12.4113 27.0381 0 4.93189 -1.1181 -1.53262 9.73625 -0.421067 0 5.45428 1.04046 -1.15244 7.91214 -0.488531 -9.96389e-18 5.81666 0.111686 -0.715859 6.42847 -0.44612 -1.07264e-17 6.3178 -0.430704 -0.235818 4.06644 -0.443923 -1.91593e-17 7.38567 -1.4624 0.154603 1.6325 -0.382666 -2.45986e-17 9.22288 -0.888062 0.483024 0.505527 -0.408332 -2.82008e-17 10.2464 1.53133 0.00970312 0.114502 -0.0150768 -1.25459e-17 4.64811 0.694664 1.25737 4.22948 -2.98715 -1.75924e-17 4.68175 0.4096 5.73487 -13.0414 -1.29018 -1.9515e-17 4.6908 0.74295 7.67731 -14.5533 -3.85806 1.19736 -7.38744 7.31601 11.1213 -0.516325 -3.08593 12.5803 3.15559 -3.17425 -68.838 12.9638 -39.7743 28.3639 0.0580795 0.133078 11.8283 -14.1386 -100.848 23.5335 0.0481878 0.110415 -3.97446 -73.4837 -4.37976 -1.19736 -7.38743 7.31591 -17.9409 -2.07317 0.273827 -12.5803 3.15559 -3.17425 71.635 22.1302 49.1414 -28.3639 0.0580795 0.133078 -11.9308 -13.5115 97.7626 -23.5335 0.0481876 0.110415 -0.613851 -58.6974 4.83268 8.96978 -4.08401 1.97395 12.2665 -28.4796 0.576099 -0.827718 -37.6515 -0.63625 -4.01577 14.7729 0.261344 -2.25899 -39.2341 -5.87393 -10.309 3.35254 17.0239 0.756579 -9.59872 12.1348 2.76732e-15 -6.79919e-16 -1.02796e-16 -8.96978 -4.08401 1.97395 -17.4628 -23.0966 8.91105 0.827718 -37.6515 -0.63625 6.6987 23.8353 -0.992215 2.25899 -39.2341 -5.87393 2.80548 -15.7657 -16.7392 -0.756579 -9.59872 12.1348 -5.80013e-16 -5.6606e-16 -1.27416e-14 
